{"title":"Homefront 2013 WEBRip XviD AC3 ACAB","uid":9562243,"size":1375214139,"categoryP":"video","categoryS":"movies","magnet":"?xt=urn:btih:25781671c00e66bf75542a51063f9def14c5d844&amp;dn=Homefront+2013+WEBRip+XviD+AC3+ACAB&amp;tr=udp%3A%2F%2Ftracker.openbittorrent.com%3A80&amp;tr=udp%3A%2F%2Fopen.demonii.com%3A1337&amp;tr=udp%3A%2F%2Ftracker.coppersurfer.tk%3A6969&amp;tr=udp%3A%2F%2Fexodus.desync.com%3A6969","seeders":2,"leechers":6,"uploader":"TKTh3K1ng","files":4,"time":1391452438,"description":"[img]http://imageshack.com/a/img849/3433/fc7g.jpg[/img]\n\n[b]Homefront 2013 WEBRip XviD AC3 ACAB\n\nIMDb: &lt;a href=&quot;\nhttp://www.imdb.com/title/tt2312718/&quot; rel=&quot;nofollow&quot; target=&quot;_NEW&quot;&gt;\nhttp://www.imdb.com/title/tt2312718/&lt;/a&gt;\n\nFormat                                   : AVI\nFormat/Info                              : Audio Video Interleave\nFile size                                : 1.27 GiB\nDuration                                 : 1h 35mn\nOverall bit rate                         : 1 897 Kbps\nWriting library                          : VirtualDub build 30091/release\n\nVideo\nID                                       : 0\nFormat                                   : MPEG-4 Visual\nFormat profile                           : Advanced Simple@L5\nFormat settings, BVOP                    : 2\nFormat settings, QPel                    : No\nFormat settings, GMC                     : No warppoints\nFormat settings, Matrix                  : Default (H.263)\nMuxing mode                              : Packed bitstream\nCodec ID                                 : XVID\nCodec ID/Hint                            : XviD\nDuration                                 : 1h 35mn\nBit rate                                 : 1 695 Kbps\nWidth                                    : 720 pixels\nHeight                                   : 384 pixels\nDisplay aspect ratio                     : 1.85:1\nFrame rate                               : 25.000 fps\nColor space                              : YUV\nChroma subsampling                       : 4:2:0\nBit depth                                : 8 bits\nScan type                                : Progressive\nCompression mode                         : Lossy\nBits/(Pixel*Frame)                       : 0.245\nStream size                              : 1.13 GiB (89%)\nWriting library                          : XviD 1.2.1 (UTC 2008-12-04)\n\nAudio\nID                                       : 1\nFormat                                   : AC-3\nFormat/Info                              : Audio Coding 3\nMode extension                           : CM (complete main)\nFormat settings, Endianness              : Big\nCodec ID                                 : 2000\nDuration                                 : 1h 35mn\nBit rate mode                            : Constant\nBit rate                                 : 192 Kbps\nChannel count                            : 2 channels\nChannel positions                        : Front: L R\nSampling rate                            : 48.0 KHz\nBit depth                                : 16 bits\nCompression mode                         : Lossy\nStream size                              : 132 MiB (10%)\n\nScreenshots :[/b]\n\n[img]http://s1.postimg.org/5cvp5kc0f/bcvbcvb.png[/img]\n[img]http://s1.postimg.org/eyp9lv367/bvbcbc.png[/img]\n[img]http://s1.postimg.org/4pwsg1f4f/ghgh.png[/img]\n[img]http://s1.postimg.org/6b7gu3zyn/nbnvn.png[/img]","torrent":{"xt":"urn:btih:25781671c00e66bf75542a51063f9def14c5d844","amp;dn":"Homefront+2013+WEBRip+XviD+AC3+ACAB","amp;tr":["udp%3A%2F%2Ftracker.openbittorrent.com%3A80","udp%3A%2F%2Fopen.demonii.com%3A1337","udp%3A%2F%2Ftracker.coppersurfer.tk%3A6969","udp%3A%2F%2Fexodus.desync.com%3A6969"],"infoHash":"25781671c00e66bf75542a51063f9def14c5d844","infoHashBuffer":{"type":"Buffer","data":[37,120,22,113,192,14,102,191,117,84,42,81,6,63,157,239,20,197,216,68]},"announce":[],"urlList":[]}}